<?xml version="1.0" encoding="UTF-8" standalone="no"?><!DOCTYPE svg PUBLIC "-//W3C//DTD SVG 1.1//EN" "http://www.w3.org/Graphics/SVG/1.1/DTD/svg11.dtd"><svg width="100%" height="100%" viewBox="0 0 1000 1001" version="1.1" xmlns="http://www.w3.org/2000/svg" xmlns:xlink="http://www.w3.org/1999/xlink" xml:space="preserve" xmlns:serif="http://www.serif.com/" style="fill-rule:evenodd;clip-rule:evenodd;stroke-linejoin:round;stroke-miterlimit:1.41421;"><rect id="logo-olive" x="0" y="0.062" width="1000" height="1000" style="fill:none;"/><circle cx="508.282" cy="493.049" r="250" style="fill:#515625;"/><path d="M508.282,285.049l48.495,149.252l156.934,0l-126.962,92.243l48.495,149.252l-126.962,-92.243l-126.961,92.243l48.495,-149.252l-126.962,-92.243l156.933,0l48.495,-149.252Z" style="fill:#fff;"/><g><path d="M109.898,526.342l23.457,22.453l28.652,-15.38l-14.075,29.261l23.457,22.453l-32.245,-4.423l-14.075,29.262l-5.789,-31.911l-32.056,-4.368l28.463,-15.436l-5.789,-31.911Z" style="fill:#515625;fill-rule:nonzero;"/><path d="M156.275,368.977l-81.227,-1.77c-2.223,-0.123 -3.19,-0.045 -5.253,-0.683c-7.05,-2.182 -1.786,-8.843 -8.492,-10.919c-6.19,-1.915 -7.713,6.658 -8.937,10.613l-11.652,37.658c-1.224,3.955 -3.631,11.124 2.044,12.88c2.407,0.745 4.381,-0.152 6.051,-1.896c3.5,-4.004 3.856,-3.329 9.269,-3.161l120.783,1.197l7.662,-24.762l-30.248,-19.157Zm-12.005,-7.483l0.106,-0.344l-49.008,-30.992c-3.636,-2.256 -7.165,-4.855 -10.085,-8.208c-3.275,-4.028 -3.656,-5.842 -4.336,-10.951c-0.471,-3.349 -0.242,-5.916 -4.025,-7.087c-5.503,-1.702 -6.784,4.873 -7.955,8.656l-5.852,18.915c-1.118,3.611 -3.033,9.801 2.297,11.451c3.439,1.064 5.216,-1.024 7.152,-3.628c2.931,-3.992 6.493,-5.151 11.308,-3.661c2.923,0.904 3.848,1.568 6.334,3.279l34.863,21.904l19.201,0.666Z" style="fill:#515625;fill-rule:nonzero;"/><path d="M100.77,260.761c2.022,1.504 4.288,1.171 6.263,-0.277c5.348,-3.873 6.107,-3.084 11.451,0.891l75.681,56.291c5.344,3.975 6.318,4.475 4.147,10.711c-0.819,2.308 -0.486,4.574 1.536,6.078c4.188,3.116 8.022,-1.436 8.452,-2.013l28.36,-38.13l-108.032,-80.354l-28.361,38.129c-0.43,0.578 -3.686,5.559 0.503,8.674Zm41.069,-47.072c11.475,-11.206 24.031,-13.308 38.523,-8.361c2.703,0.889 4.685,1.241 6.511,-1.214c3.223,-4.333 0.586,-6.518 -0.136,-7.056l-29.319,-21.807l-23.956,32.208l8.377,6.23Zm99.655,74.124l24.708,-33.219l-28.885,-21.485c-0.578,-0.429 -4.589,-4.085 -8.026,0.536c-1.934,2.6 -0.268,5.185 1.147,7.808c8.654,12.493 9.937,27.356 2.68,40.129l8.376,6.231Zm-50.838,-37.814c6.1,-4.884 13.774,-3.439 20.229,-0.656c2.993,1.104 5.948,1.956 8.204,-1.077c3.33,-4.477 -2.407,-7.622 -3.562,-8.482l-31.197,-23.204c-1.155,-0.859 -5.817,-5.449 -9.148,-0.971c-2.255,3.033 -0.589,5.618 1.329,8.166c4.521,5.382 8.113,12.316 5.19,19.564l8.955,6.66Z" style="fill:#515625;fill-rule:nonzero;"/><path d="M297.308,206.369c3.533,5.646 4.258,6.466 -0.032,11.486c-1.602,1.852 -2.116,4.085 -0.78,6.221c2.769,4.425 7.996,1.58 8.606,1.198l43.184,-27.019c0.61,-0.382 5.455,-3.838 2.686,-8.263c-1.336,-2.137 -3.569,-2.651 -5.935,-2.02c-6.391,1.663 -6.811,0.652 -10.343,-4.994l-60.722,-97.049l-37.385,23.391l60.721,97.049Zm5.504,-138.485l-21.973,13.748l5.537,8.851c11.468,0.681 19.905,9.416 26.339,16.644c2.558,3.071 5.803,6.561 10.076,3.887c4.578,-2.864 2.649,-6.965 2.267,-7.576l-22.246,-35.554Zm-72.82,95.035c0.382,0.61 3.227,4.139 7.804,1.274c4.273,-2.673 2.554,-7.118 0.911,-10.761c-3.687,-8.947 -7.852,-20.355 -3.449,-30.965l-5.538,-8.851l-21.973,13.748l22.245,35.555Z" style="fill:#515625;fill-rule:nonzero;"/><path d="M397.172,35.569c-25.591,6.786 -41.113,27.7 -35.003,54.369c6.31,27.547 29.129,32.845 53.367,37.079c9.266,1.756 23.295,3.343 25.476,14.477c1.86,9.73 -4.45,15.238 -12.269,19.8l2.332,10.176c25.846,-6.475 44.42,-29.381 38.19,-56.577c-3.698,-16.142 -14.494,-31.027 -48.283,-35.843c-22.728,-3.288 -28.671,-7.466 -30.64,-16.064c-1.648,-7.193 3.016,-13.432 9.161,-17.241l-2.331,-10.176Zm48.304,-2.756c-0.322,-1.404 -1.337,-7.45 -6.776,-6.204c-4.562,1.046 -2.764,7.282 -7.326,8.327c-1.93,0.442 -15.213,-3.533 -26.307,-1.176l2.331,10.177c14.369,-0.153 28.302,10.69 33.206,23.231c1.331,3.389 3.674,6.361 7.884,5.396c5.089,-1.166 4.786,-5.713 3.861,-9.748l-6.873,-30.003Zm-63.974,141.519c0.201,0.877 1.688,7.369 7.127,6.123c4.387,-1.005 2.534,-6.674 8.148,-7.96c6.317,-1.447 11.057,3.93 26.402,0.784l-2.331,-10.177c-16.164,0.379 -29.968,-14.74 -35.64,-28.214c-1.21,-2.862 -4.309,-5.106 -7.818,-4.302c-4.913,1.125 -4.49,6.199 -3.646,9.883l7.758,33.863Z" style="fill:#515625;fill-rule:nonzero;"/><path d="M640.169,136.724l7.397,-68.02c0.151,-1.874 0.208,-3.011 0.796,-4.52c2.42,-6.205 9.378,-1.753 11.601,-7.455c2.093,-5.366 -3.973,-7.152 -7.662,-8.59l-38.907,-15.172c-3.857,-1.504 -10.733,-4.185 -12.891,1.349c-1.177,3.019 0.005,4.446 2.063,6.601c2.496,2.519 2.373,3.823 1.969,7.337l-12.72,120.813l19.957,7.782l28.397,-40.125Zm40.306,-77.599l-28.799,40.161l-9.718,89.334l19.956,7.781l26.849,-37.637l10.662,-92.25l-18.95,-7.389Zm17.265,86.524l0.27,0.299l27.343,-38.411c5.45,-7.535 9.919,-12.555 19.743,-12.975c2.572,-0.156 4.175,-0.303 5.156,-2.819c1.7,-4.36 -1.858,-6.134 -5.045,-7.377l-21.633,-8.435c-3.019,-1.177 -6.802,-1.88 -8.306,1.977c-2.42,6.205 8.669,8.983 5.268,17.704c-0.981,2.515 -2.436,4.266 -3.855,6.418l-16.574,23.676l-2.367,19.943Z" style="fill:#515625;fill-rule:nonzero;"/><path d="M835.451,187.994c4.967,-4.438 5.652,-5.291 11.326,-1.913c2.096,1.266 4.383,1.394 6.263,-0.285c3.892,-3.477 0.203,-8.147 -0.277,-8.684l-33.939,-37.987c-0.48,-0.536 -4.706,-4.726 -8.599,-1.248c-1.879,1.679 -2.008,3.966 -0.985,6.191c2.72,6.017 1.795,6.602 -3.171,11.04l-70.336,62.842c-4.967,4.437 -5.652,5.291 -11.326,1.912c-2.096,-1.265 -4.383,-1.394 -6.263,0.285c-3.892,3.478 -0.203,8.148 0.277,8.684l33.939,37.987c0.48,0.537 4.706,4.727 8.599,1.249c1.879,-1.679 2.008,-3.967 0.985,-6.191c-2.721,-6.017 -1.795,-6.603 3.171,-11.04l70.336,-62.842Zm-54.385,80.694c-4.967,4.438 -5.652,5.291 -11.326,1.913c-2.096,-1.266 -4.384,-1.394 -6.263,0.285c-3.892,3.478 -0.203,8.147 0.276,8.684l33.94,37.987c0.48,0.537 4.706,4.726 8.598,1.248c1.88,-1.679 2.008,-3.966 0.986,-6.191c-2.721,-6.017 -1.796,-6.602 3.171,-11.04l70.336,-62.842c4.966,-4.437 5.652,-5.291 11.326,-1.912c2.096,1.265 4.383,1.394 6.262,-0.285c3.893,-3.478 0.204,-8.147 -0.276,-8.684l-33.94,-37.987c-0.479,-0.537 -4.705,-4.727 -8.598,-1.249c-1.879,1.679 -2.008,3.967 -0.986,6.191c2.721,6.018 1.796,6.603 -3.171,11.04l-30.469,27.224l-10.554,-11.812l-7.785,6.955l10.553,11.813l-32.08,28.662Z" style="fill:#515625;fill-rule:nonzero;"/><path d="M956.609,347.569c-15.034,-35.24 -49.812,-42.687 -83.882,-31.628c-34.07,11.059 -57.845,37.511 -49.317,74.863l9.93,-3.223c0.299,-8.992 5.213,-11.344 9.493,-12.733l88.685,-28.786c4.28,-1.39 9.639,-2.372 15.161,4.73l9.93,-3.223Zm-130.698,50.939c15.034,35.24 49.812,42.687 83.882,31.628c34.07,-11.059 57.845,-37.511 49.317,-74.863l-9.93,3.223c-0.299,8.992 -5.213,11.344 -9.493,12.733l-88.685,28.786c-4.28,1.389 -9.639,2.372 -15.161,-4.73l-9.93,3.223Z" style="fill:#515625;fill-rule:nonzero;"/><path d="M883.868,619.722l-13.311,-29.616l-32.331,3.498l24.031,-21.836l-13.311,-29.617l28.226,16.205l24.031,-21.837l-6.615,31.75l28.072,16.083l-32.177,3.621l-6.615,31.749Z" style="fill:#515625;fill-rule:nonzero;"/><path d="M851.015,805.154c-8.339,7.286 -16.394,0.909 -21.526,-3.613l-57.534,-50.693c-5.132,-4.521 -12.473,-11.709 -6.294,-20.9l-7.834,-6.902c-19.753,22.42 -21.091,61.784 11.956,88.263c36.272,29.08 69.106,23.944 89.066,0.747l-7.834,-6.902Zm13.188,0.824l30.464,-34.574c2.379,-2.701 4.949,-6.434 1.438,-9.528c-3.377,-2.975 -6.043,-0.766 -9.368,1.102c-3.071,1.852 -6.48,-1.631 -8.506,-3.416l-70.769,-62.354c-4.997,-4.403 -5.926,-4.982 -3.247,-11.018c1.007,-2.231 0.863,-4.518 -1.028,-6.184c-3.917,-3.451 -7.162,-0.312 -9.78,2.659l-30.225,34.304l101.021,89.009Z" style="fill:#515625;fill-rule:nonzero;"/><path d="M767.187,888.42c-1.16,-2.237 -3.344,-2.93 -5.753,-2.492c-6.504,1.143 -6.841,0.101 -9.907,-5.812l-43.415,-83.733c-3.066,-5.913 -3.723,-6.789 0.958,-11.446c1.746,-1.717 2.439,-3.901 1.279,-6.138c-2.403,-4.634 -7.842,-2.219 -8.481,-1.888l-42.186,21.874l61.975,119.528l42.186,-21.874c0.639,-0.331 5.747,-3.385 3.344,-8.019Zm-57.527,24.353c-15.222,5.054 -27.431,1.45 -38.297,-9.34c-2.042,-1.982 -3.67,-3.166 -6.386,-1.757c-4.794,2.485 -3.38,5.604 -2.966,6.403l16.82,32.439l35.635,-18.477l-4.806,-9.268Zm-57.169,-110.26l-36.754,19.057l16.571,31.959c0.332,0.639 2.338,5.682 7.451,3.03c2.877,-1.491 2.51,-4.545 2.386,-7.522c-2.314,-15.021 3.036,-28.946 15.151,-37.256l-4.805,-9.268Zm29.164,56.249c-7.623,1.722 -13.89,-2.936 -18.477,-8.263c-2.207,-2.302 -4.492,-4.362 -7.847,-2.622c-4.954,2.569 -1.172,7.907 -0.509,9.186l17.896,34.516c0.663,1.278 2.847,7.445 7.8,4.877c3.356,-1.74 2.989,-4.794 2.38,-7.925c-1.711,-6.818 -1.906,-14.624 3.894,-19.862l-5.137,-9.907Z" style="fill:#515625;fill-rule:nonzero;"/><path d="M572.264,968.486c26.103,-4.424 43.468,-23.835 39.816,-50.95c-3.772,-28.008 -26.013,-35.365 -49.764,-41.792c-9.067,-2.593 -22.892,-5.453 -24.049,-16.74c-0.965,-9.859 5.821,-14.769 14.023,-18.598l-1.394,-10.347c-26.329,4.091 -46.915,25.208 -43.191,52.858c2.211,16.412 11.605,32.22 44.813,40.098c22.334,5.347 27.871,10.05 29.048,18.791c0.985,7.314 -4.229,13.101 -10.695,16.333l1.393,10.347Zm-48.354,-1.661c0.192,1.427 0.652,7.541 6.182,6.796c4.638,-0.625 3.417,-6.999 8.055,-7.623c1.962,-0.265 14.827,4.904 26.09,3.569l-1.394,-10.347c-14.323,-1.158 -27.209,-13.226 -30.949,-26.163c-1.016,-3.495 -3.078,-6.669 -7.359,-6.092c-5.173,0.697 -5.286,5.253 -4.734,9.356l4.109,30.504Zm76.613,-135.095c-0.12,-0.892 -1.009,-7.492 -6.539,-6.747c-4.459,0.6 -3.131,6.415 -8.84,7.184c-6.422,0.865 -10.652,-4.922 -26.22,-3.189l1.393,10.347c16.131,1.097 28.499,17.412 32.919,31.346c0.944,2.961 3.825,5.479 7.393,4.998c4.995,-0.672 5.036,-5.763 4.531,-9.51l-4.637,-34.429Z" style="fill:#515625;fill-rule:nonzero;"/><path d="M414.918,941.496c-1.026,6.58 -1.014,7.675 -7.544,8.661c-2.423,0.351 -4.274,1.702 -4.662,4.192c-0.804,5.157 5.009,6.428 5.721,6.539l50.331,7.85c0.712,0.11 6.636,0.67 7.441,-4.488c0.388,-2.49 -0.963,-4.34 -3.164,-5.412c-5.92,-2.927 -5.576,-3.966 -4.549,-10.547l14.533,-93.193c1.027,-6.581 1.015,-7.676 7.545,-8.661c2.423,-0.351 4.273,-1.702 4.662,-4.192c0.804,-5.158 -5.01,-6.429 -5.721,-6.539l-50.332,-7.85c-0.711,-0.111 -6.636,-0.67 -7.44,4.487c-0.388,2.49 0.963,4.341 3.164,5.412c5.92,2.928 5.575,3.967 4.549,10.547l-14.534,93.194Z" style="fill:#515625;fill-rule:nonzero;"/><path d="M318.538,905.255c-2.858,5.815 -7.405,11.804 -14.979,10.89l-4.604,9.37c28.428,13.166 63.57,-3.66 80.637,-38.394c16.988,-34.572 8.834,-72.672 -18.879,-87.292l-4.604,9.37c5.351,5.437 3.31,12.857 0.452,18.673l-38.023,77.383Zm-22.248,7.318c-12.768,-7.076 -20.204,-22.963 -15.051,-46.103c0.859,-3.789 1.236,-7.414 -2.964,-9.478c-5.008,-2.461 -7.469,2.547 -7.866,3.355l-17.702,36.026c-0.397,0.808 -2.863,5.011 1.983,7.392c5.17,2.54 7.622,-3.675 12.469,-1.294c1.777,0.873 8.278,9.683 24.527,19.472l4.604,-9.37Zm57.154,-116.316c-15.506,-7.218 -33.624,-7.898 -49.933,-3.277l-15.718,31.987c-0.397,0.808 -0.864,2.985 -5.289,3.418c-1.93,0.255 -3.94,0.671 -5.289,3.418c-2.62,5.331 2.465,7.228 3.273,7.624l38.61,18.972c0.808,0.397 6.542,3.014 8.685,-1.348c1.349,-2.746 0.448,-4.994 -1.819,-6.91c-5.906,-4.306 -5.671,-5.193 -3.925,-8.748l14.289,-29.079c1.349,-2.746 4.371,-8.08 12.512,-6.687l4.604,-9.37Z" style="fill:#515625;fill-rule:nonzero;"/><path d="M263.658,776.525c18.717,-12.814 21.137,0.457 26.917,-4.691c4.167,-3.711 -1.011,-8.983 -2.328,-10.461l-13.648,-15.323c-1.317,-1.479 -5.957,-7.229 -10.123,-3.518c-5.78,5.148 7.124,9.082 -7.762,26.197l-40.592,36.157l-6.737,19.499l0.239,0.269l54.034,-48.129Zm-91.319,-30.267l6.871,-19.619l-0.24,-0.268l-32.662,29.092c-19.221,17.12 -23.93,1.549 -30.113,7.056c-3.764,3.352 -0.082,8.028 1.116,9.372l16.282,18.28c1.197,1.344 5.417,5.54 9.18,2.188c6.183,-5.507 -8.742,-11.98 10.479,-29.1l19.087,-17.001Zm-15.52,69.989l30.768,34.544c2.649,2.702 6.241,6.735 10.273,3.143c2.957,-2.634 1.938,-4.86 0.71,-7.863c-2.473,-5.753 -1.055,-8.221 0.793,-13.724l40.996,-124.739l-17.839,-20.027l-32.528,28.972l-33.173,99.694Z" style="fill:#515625;fill-rule:nonzero;"/></g></svg>